# xmcd
#
# Track frame offsets: 
#        150
#        9571
#        34241
#        54836
#        75139
#        91458
#        110213
#        129721
#        147007
#        165397
#        183529
#        202182
#        217932
#        234951
#
# Disc length: 3590 seconds
#
# Revision: 0
# Processed by: cddbd v1.5.1PL0 Copyright (c) Steve Scherf et al.
# Submitted via: ExactAudioCopy v0.95a5
#
DISCID=b50e040e
DTITLE=Aventura - Love and Hate
DYEAR=2004
DGENRE=Pop
TTITLE0=Intro
TTITLE1=La Pelicula
TTITLE2=Hermanita
TTITLE3=Mi Nina Cambio
TTITLE4=Pueblo Por Pueblo
TTITLE5=I'm Sorry
TTITLE6=Deja Vu
TTITLE7=Conciencia
TTITLE8=Llorar
TTITLE9=Papi Dijo
TTITLE10=Me Voy
TTITLE11=Te Invito
TTITLE12=Aventura
TTITLE13=La Guerra
EXTD=
EXTT0=
EXTT1=
EXTT2=
EXTT3=
EXTT4=
EXTT5=
EXTT6=
EXTT7=
EXTT8=
EXTT9=
EXTT10=
EXTT11=
EXTT12=
EXTT13=
PLAYORDER=
